PathFileType	4	(X/Y/Z)	C:\Users\Basilio\Documents\Thesis Gigler\squatting_fais\c3dfiles\054\SJ_pre3\markers_experimental.trc
DataRate	CameraRate	NumFrames	NumMarkers	Units	OrigDataRate	OrigDataStartFrame	OrigNumFrames
200.000000	200.000000	4	61	mm	200.000000	1121	1794
Frame#	Time	FHD			LBHD			RBHD			C7			T10			CLAV			LSHO			LUUPA			LMUPA			LDUPA			LLEP			LMEP			LRAD			LUL			LRFIN			RSHO			RUPA1			RMUPA			RDUPA			RLEP			RMEP			RRAD			RUL			RUFIN			LASI			RASI			USACR			LSACR			RSACR			LTHI1			LTHI2			LTHI3			LTHI4			LLFC			LMFC			LTIB1			LTIB2			LTIB3			LTIB4			LLMAL			LMMAL			LHEE			LMT1			LMT2			LMT5			RTHI			RTHI2			RTHI3			RTHI4			RLFC			RMFC			RTIB1			RTIB2			RTIB3			RTIB4			RLMAL			RMMAL			RHEE			RMT1			RMT2			RMT5			
		X1	Y1	Z1	X2	Y2	Z2	X3	Y3	Z3	X4	Y4	Z4	X5	Y5	Z5	X6	Y6	Z6	X7	Y7	Z7	X8	Y8	Z8	X9	Y9	Z9	X10	Y10	Z10	X11	Y11	Z11	X12	Y12	Z12	X13	Y13	Z13	X14	Y14	Z14	X15	Y15	Z15	X16	Y16	Z16	X17	Y17	Z17	X18	Y18	Z18	X19	Y19	Z19	X20	Y20	Z20	X21	Y21	Z21	X22	Y22	Z22	X23	Y23	Z23	X24	Y24	Z24	X25	Y25	Z25	X26	Y26	Z26	X27	Y27	Z27	X28	Y28	Z28	X29	Y29	Z29	X30	Y30	Z30	X31	Y31	Z31	X32	Y32	Z32	X33	Y33	Z33	X34	Y34	Z34	X35	Y35	Z35	X36	Y36	Z36	X37	Y37	Z37	X38	Y38	Z38	X39	Y39	Z39	X40	Y40	Z40	X41	Y41	Z41	X42	Y42	Z42	X43	Y43	Z43	X44	Y44	Z44	X45	Y45	Z45	X46	Y46	Z46	X47	Y47	Z47	X48	Y48	Z48	X49	Y49	Z49	X50	Y50	Z50	X51	Y51	Z51	X52	Y52	Z52	X53	Y53	Z53	X54	Y54	Z54	X55	Y55	Z55	X56	Y56	Z56	X57	Y57	Z57	X58	Y58	Z58	X59	Y59	Z59	X60	Y60	Z60	X61	Y61	Z61	

1122	5.605	-48.88748931884767	1955.977172851563	-866.7022094726565	-208.2221221923829	1898.392700195313	-938.8250732421877	-225.2648925781251	1890.668823242188	-800.6956176757815	-262.4281005859376	1750.696411132813	-861.0740966796877	-321.8674316406251	1419.940063476563	-882.098083496094	-114.0827941894532	1694.714721679688	-870.5703735351565	-161.796875	1767.992553710938	-1013.535522460938	-255.1339111328126	1654.746826171875	-1203.029174804688	-218.2289123535157	1619.405029296875	-1213.689819335938	-267.5882873535157	1603.159545898438	-1248.629150390625	-265.4057617187501	1538.181518554688	-1272.193725585938	-343.0801391601563	1528.640747070313	-1226.317504882813	-271.6773376464844	1320.804809570313	-1115.399169921875	-234.4340362548829	1275.2607421875	-1167.491577148438	-211.4254302978516	1318.732421875	-1077.770874023438	-147.7574157714844	1751.022094726563	-711.7171630859376	-250.6387023925782	1614.272216796875	-539.2698974609376	-225.5034942626954	1572.079223632813	-532.9721679687501	-277.8323669433594	1558.644409179688	-504.5108032226564	-290.0896606445313	1508.604614257813	-491.566619873047	-355.4880676269532	1512.065063476563	-548.5318603515626	-302.5758972167969	1295.088134765625	-673.3373413085939	-261.8936462402344	1257.32666015625	-613.4112548828126	-234.6934814453126	1298.040771484375	-697.4492797851564	-152.4156036376953	1221.296264648438	-1009.102478027344	-161.2078399658203	1216.0244140625	-759.3607788085939	-326.7611999511719	1340.34033203125	-882.117126464844	-336.5942077636719	1310.656127929688	-911.087829589844	-337.9248962402344	1305.804077148438	-854.9703369140627	-324.5448608398438	1023.687622070313	-1113.07666015625	-309.1901550292969	941.343444824219	-1130.830688476563	-263.9661865234376	938.1647949218752	-1138.702270507813	-344.2213439941407	892.5233154296877	-1115.034545898438	-361.8484191894532	733.8027954101564	-1117.61865234375	-285.3284301757813	694.9996948242189	-1010.646606445313	-328.6958007812501	560.5712280273439	-1131.799438476563	-403.6097106933595	535.1004028320314	-1172.614868164063	-359.3015441894532	523.7808227539064	-1168.206298828125	-360.7401428222657	439.9024353027345	-1155.443481445313	-455.5254516601564	325.3851623535157	-1193.296142578125	-386.3182983398439	311.8549804687501	-1127.88818359375	-494.3003540039064	338.6992187500001	-1119.189086914063	-351.8495483398438	174.6556549072266	-1163.130004882813	-363.2398071289063	172.7742767333985	-1210.928100585938	-429.939666748047	191.2003173828125	-1236.230346679688	-330.3141174316407	941.6104125976565	-680.6433715820314	-303.6094055175782	883.3245849609377	-668.5844116210939	-272.1675415039063	880.3747558593752	-663.1557006835939	-339.5451660156251	807.9918212890627	-685.5919189453126	-363.3374023437501	714.8186035156251	-684.3963012695314	-272.6203002929688	696.9830322265626	-787.6207275390627	-316.2961425781251	608.2957763671876	-654.1971435546876	-397.4901428222657	541.9305419921876	-635.2968750000001	-352.4873046875001	534.0885009765626	-624.1361694335939	-332.8827209472657	479.9480285644532	-632.3241577148439	-411.7746582031251	310.3659362792969	-604.9800415039064	-338.8439331054688	302.9075012207032	-665.8109741210939	-447.0696105957032	315.3916625976563	-687.3005371093751	-294.6363220214844	163.3582305908203	-621.8634643554689	-309.7536621093751	166.6773223876953	-576.1182250976564	-376.6651000976563	177.4375	-560.1346435546876	
1123	5.61	-52.93636322021486	1967.336547851563	-867.4670410156252	-212.2030334472657	1909.430297851563	-939.0715332031252	-228.8337097167969	1902.242309570313	-800.8022460937502	-265.9783935546876	1761.159057617188	-861.0259399414065	-322.8820495605469	1430.09375	-880.721374511719	-117.3697357177735	1706.298950195313	-870.3628540039065	-166.1633605957032	1778.892211914063	-1013.571899414063	-260.3021850585938	1662.104370117188	-1203.321166992188	-221.2098236083985	1627.73876953125	-1214.354858398438	-269.5416259765626	1610.573120117188	-1249.543090820313	-265.3239135742188	1545.135009765625	-1272.295776367188	-342.7917785644532	1534.324584960938	-1226.942626953125	-270.6609802246094	1328.929809570313	-1114.741943359375	-231.7146759033204	1283.602661132813	-1166.260131835938	-210.8857727050782	1328.687377929688	-1077.005981445313	-151.1409606933594	1762.525390625	-711.6860351562501	-252.9735565185547	1623.935668945313	-538.0024414062501	-226.756088256836	1582.194702148438	-531.7738037109376	-279.1308898925782	1567.74072265625	-503.410125732422	-290.0082397460938	1517.520874023438	-490.3688964843751	-355.1385803222657	1519.577758789063	-547.2797241210939	-301.1414794921876	1304.71240234375	-672.7459716796876	-259.9599914550782	1267.29150390625	-613.2247314453126	-233.5708770751954	1308.49169921875	-697.1508178710939	-149.7005004882813	1232.618774414063	-1008.910949707031	-158.2110137939453	1227.93017578125	-758.7675781250001	-325.9301147460938	1348.646362304688	-881.5544433593752	-335.1459350585938	1318.857177734375	-910.1960449218752	-336.5984191894532	1314.18798828125	-854.0608520507815	-324.9368286132813	1033.824951171875	-1109.816040039063	-309.9179992675782	951.5538330078127	-1129.24755859375	-265.6307678222657	949.707458496094	-1139.90185546875	-343.8106689453126	902.704284667969	-1112.747802734375	-359.6055908203126	744.7341918945314	-1117.464111328125	-279.2437744140626	705.5158691406251	-1014.051879882813	-331.1228942871094	570.8450927734376	-1131.261108398438	-407.7275695800782	546.8286743164064	-1169.701904296875	-363.8283386230469	534.3969116210939	-1166.095336914063	-367.0287475585938	450.4288940429689	-1152.406494140625	-464.0594482421876	338.7499694824219	-1188.986328125	-396.559051513672	324.1116943359376	-1121.981323242188	-502.9929809570314	355.9277648925782	-1116.575439453125	-367.7966003417969	184.8015441894532	-1152.371459960938	-378.4985961914063	182.1473693847657	-1200.471923828125	-443.2947082519532	202.5208740234376	-1227.911254882813	-328.2288513183594	952.4904785156252	-680.5830688476564	-302.1395874023438	894.9567871093752	-667.9662475585939	-270.8317565917969	892.0286254882815	-662.1821289062501	-336.9554443359376	818.977233886719	-685.5259399414064	-360.5254211425782	726.0789184570314	-684.4393920898439	-265.2184448242188	707.5651855468751	-784.1743774414065	-317.7664489746094	617.7178344726564	-654.0636596679689	-401.3366699218751	553.2456054687501	-638.9057617187501	-356.5798034667969	544.1252441406251	-626.6213378906251	-338.3723754882813	489.6405334472657	-634.6189575195314	-421.6186523437501	322.8484802246094	-610.3157958984376	-350.2156372070313	313.6467895507813	-672.0710449218751	-457.9716186523439	331.0916442871094	-691.4643554687501	-310.8670959472657	171.4476165771485	-632.4918823242189	-325.0761108398438	174.7751159667969	-586.1177368164064	-390.9156188964845	188.0011749267578	-568.6915893554689	
1124	5.615	-56.46562576293947	1977.515014648438	-868.7343750000002	-216.1055755615235	1920.217529296875	-939.3955688476565	-232.4635314941407	1913.679565429688	-800.9448852539065	-269.8547973632813	1771.713745117188	-860.572937011719	-323.1890563964844	1439.750244140625	-879.9234619140627	-121.4768142700196	1717.487182617188	-870.1348876953127	-170.2566986083985	1789.153198242188	-1013.386169433594	-261.9476928710938	1669.513671875	-1204.846435546875	-223.4222259521485	1635.966186523438	-1214.93701171875	-271.4905395507813	1617.26123046875	-1250.36083984375	-264.9897460937501	1552.094116210938	-1272.1533203125	-342.5831298828126	1540.309204101563	-1227.55322265625	-270.3734130859376	1336.957885742188	-1114.108642578125	-229.9962615966797	1292.055908203125	-1164.889282226563	-210.7448272705079	1338.220458984375	-1076.5146484375	-154.580551147461	1773.907104492188	-711.3902587890626	-253.9608154296876	1633.139892578125	-536.5151367187501	-227.5069122314454	1592.009765625	-530.5258178710939	-279.1972656250001	1576.671020507813	-502.0639038085939	-289.2655944824219	1526.1474609375	-489.2005920410157	-354.7311401367188	1527.532348632813	-545.5398559570314	-300.2131042480469	1314.42724609375	-672.7188110351564	-258.8208312988282	1276.613891601563	-613.2276000976564	-232.9401855468751	1318.638549804688	-696.7634277343751	-147.0954284667969	1243.616455078125	-1008.949157714844	-155.4085388183594	1239.446899414063	-757.3864135742189	-325.3004455566407	1356.240112304688	-881.344177246094	-333.8558349609376	1326.14208984375	-909.9175415039065	-334.9648742675782	1321.59521484375	-853.8941040039065	-325.5205383300782	1043.880859375	-1106.36181640625	-311.4272766113282	962.4821777343752	-1127.814575195313	-266.0926818847657	960.107360839844	-1138.966064453125	-343.7853393554688	912.6861572265627	-1110.455810546875	-359.1127929687501	756.4231567382814	-1117.366943359375	-274.8966369628907	716.6139526367189	-1017.075439453125	-334.0495910644532	581.2690429687501	-1130.400024414063	-411.3129882812501	558.7383422851564	-1167.60009765625	-368.0264587402344	545.5571899414064	-1164.394775390625	-372.5971679687501	461.7578735351564	-1149.575073242188	-471.466522216797	351.5183105468751	-1185.507934570313	-405.4544067382814	336.9165344238282	-1116.9833984375	-510.9493408203126	372.8700256347657	-1114.19189453125	-380.7727966308594	196.0319519042969	-1142.308227539063	-390.9999389648439	191.79345703125	-1190.262084960938	-454.7496032714845	213.2536926269532	-1219.369018554688	-326.7180175781251	963.304382324219	-681.6444702148439	-300.6176452636719	905.7132568359377	-667.6669921875001	-269.7221984863282	902.7449951171877	-660.9008178710939	-334.3657531738282	829.7034912109377	-685.7750244140626	-358.3225402832032	737.4165039062501	-684.6590576171876	-260.3379516601563	717.8541259765626	-780.539733886719	-319.8614807128907	627.7968750000001	-654.1549072265626	-405.4157714843751	565.5351562500001	-642.3316650390626	-361.9122314453126	554.8626098632814	-628.9387817382814	-344.3347167968751	500.0205078125001	-636.5309448242189	-430.9616088867189	335.9021911621094	-614.9325561523439	-360.7408142089844	325.4468078613282	-677.9623413085939	-467.8070678710939	347.1137390136719	-695.2894897460939	-325.7349548339844	181.7624053955078	-642.8708496093751	-339.3287353515626	183.2652893066407	-596.8532104492189	-404.3348388671876	198.7065887451172	-577.1715087890626	
1125	5.62	-59.68338775634767	1987.258178710938	-869.669128417969	-222.2766723632813	1930.19921875	-939.613708496094	-235.623764038086	1924.767944335938	-800.9756469726565	-273.6740417480469	1781.89892578125	-860.1466064453127	-323.2088928222657	1449.167114257813	-879.162048339844	-124.6865158081055	1728.317016601563	-869.9866333007815	-174.5223083496094	1799.856079101563	-1013.258483886719	-265.3786010742188	1677.070190429688	-1204.93994140625	-225.1433410644532	1644.462524414063	-1215.265380859375	-272.8174133300782	1624.0419921875	-1250.540771484375	-264.6280212402344	1559.066772460938	-1271.738403320313	-342.3923645019532	1546.446533203125	-1228.058959960938	-270.1830749511719	1344.7353515625	-1113.466918945313	-228.3850097656251	1300.697631835938	-1162.985229492188	-211.0435028076172	1347.087280273438	-1076.33447265625	-158.5103454589844	1784.72607421875	-711.3451538085939	-254.3387603759766	1642.460693359375	-535.1801147460939	-227.4956359863282	1601.26708984375	-529.9488525390626	-278.2746887207032	1585.421020507813	-500.5041809082032	-288.0726318359376	1534.702758789063	-487.9988708496095	-354.4569091796876	1535.882568359375	-543.0254516601564	-299.3948669433594	1324.05712890625	-672.5843505859376	-258.4035339355469	1286.0849609375	-613.2554931640626	-232.0210418701172	1328.233276367188	-696.4431762695314	-144.1011657714844	1253.70947265625	-1009.143005371094	-152.1132965087891	1250.617797851563	-755.9772338867189	-323.9915771484376	1363.119506835938	-881.600769042969	-331.8022460937501	1332.655029296875	-909.975036621094	-332.5893554687501	1328.386352539063	-853.9246826171877	-324.6231689453126	1054.226440429688	-1103.33642578125	-310.6380615234376	972.552673339844	-1125.998657226563	-265.8178710937501	970.594421386719	-1137.72607421875	-342.7615661621094	923.0936279296877	-1108.552978515625	-359.5675354003907	767.7360229492189	-1116.379516601563	-274.0354614257813	727.6469726562501	-1018.863708496094	-337.0083007812501	592.4447631835939	-1129.362060546875	-415.2971191406251	571.5667724609376	-1166.373413085938	-372.3921813964844	557.0173339843751	-1162.1171875	-377.6632080078126	473.2762451171876	-1147.374877929688	-478.7697753906251	363.6964721679688	-1182.29150390625	-412.5677490234376	349.6556701660157	-1112.867553710938	-517.6631469726564	387.7848205566407	-1111.8701171875	-390.5461425781251	208.338607788086	-1133.436401367188	-400.2428283691407	202.1781463623047	-1181.315307617188	-463.9305725097657	223.2930908203126	-1211.048706054688	-324.8847045898438	973.781188964844	-682.9278564453126	-299.3643493652344	915.8958740234377	-667.5153198242189	-268.1310424804688	912.9400634765627	-660.4517211914064	-332.6086120605469	840.3027343750002	-685.9255371093751	-356.9176635742188	748.9094848632814	-684.8900756835939	-256.4558715820313	728.1900634765626	-777.8631591796877	-322.2089843750001	638.2803955078126	-654.2346801757814	-409.8734436035157	577.9583129882814	-645.5910034179689	-366.9666442871094	566.0958862304689	-631.4021606445314	-350.0007019042969	511.0002746582032	-638.2117919921876	-439.6992797851564	348.8905639648438	-619.4238891601564	-369.9451904296876	337.7452392578126	-682.6513671875001	-476.5900268554689	363.1213073730469	-698.8950805664064	-338.9425048828126	192.4829711914063	-651.8225708007814	-352.7990722656251	192.7399291992188	-605.9833984375001	-416.9585571289064	209.3987426757813	-585.6084594726564	
